<?xml version="1.0" encoding="UTF-8" standalone="no"?>
<svg
   xmlns:dc="http://purl.org/dc/elements/1.1/"
   xmlns:cc="http://creativecommons.org/ns#"
   xmlns:rdf="http://www.w3.org/1999/02/22-rdf-syntax-ns#"
   xmlns:svg="http://www.w3.org/2000/svg"
   xmlns="http://www.w3.org/2000/svg"
   xmlns:sodipodi="http://sodipodi.sourceforge.net/DTD/sodipodi-0.dtd"
   xmlns:inkscape="http://www.inkscape.org/namespaces/inkscape"
   id="Слой_2"
   data-name="Слой 2"
   viewBox="0 0 300 300"
   version="1.1"
   sodipodi:docname="PF2e.svg"
   width="300"
   height="300"
   inkscape:version="0.92.4 (5da689c313, 2019-01-14)">
  <metadata
     id="metadata25">
    <rdf:RDF>
      <cc:Work
         rdf:about="">
        <dc:format>image/svg+xml</dc:format>
        <dc:type
           rdf:resource="http://purl.org/dc/dcmitype/StillImage" />
        <dc:title></dc:title>
      </cc:Work>
    </rdf:RDF>
  </metadata>
  <sodipodi:namedview
     pagecolor="#ffffff"
     bordercolor="#666666"
     borderopacity="1"
     objecttolerance="10"
     gridtolerance="10"
     guidetolerance="10"
     inkscape:pageopacity="0"
     inkscape:pageshadow="2"
     inkscape:window-width="1920"
     inkscape:window-height="1017"
     id="namedview23"
     showgrid="false"
     scale-x="1"
     fit-margin-top="-100"
     fit-margin-bottom="-100"
     fit-margin-right="-100"
     inkscape:zoom="2.2250293"
     inkscape:cx="130.58915"
     inkscape:cy="115.69978"
     inkscape:window-x="-8"
     inkscape:window-y="-8"
     inkscape:window-maximized="1"
     inkscape:current-layer="Слой_2" />
  <defs
     id="defs4">
    <style
       id="style2">
            .cls-1 {
                fill: #5e1515;
            }

            .cls-2 {
                fill: #ededed;
            }

            .cls-3 {
                fill: #dac484;
            }
        </style>
  </defs>
  <path
     class="cls-1"
     d="m 103.19,108.39 q -2.75,-7.53 -7.63,-10.65 l -24.26,2.93 v 45.75 A 58.46,58.46 0 0 0 84.4,148 q 10.57,0 16,-6.93 c 3.66,-4.63 5.48,-10.41 5.48,-17.3 a 44.61,44.61 0 0 0 -2.69,-15.38 z m -8.08,28.47 c -1.47,1.86 -4.18,4.35 -10.71,4.35 a 49.45,49.45 0 0 1 -6.31,-0.43 v -34.09 l 15.42,-1.87 a 17.53,17.53 0 0 1 3.29,5.89 38,38 0 0 1 2.33,13.05 c 0,5.38 -1.31,9.66 -4.02,13.1 z m 8.08,-28.47 q -2.75,-7.53 -7.63,-10.65 l -24.26,2.93 v 45.75 A 58.46,58.46 0 0 0 84.4,148 q 10.57,0 16,-6.93 c 3.66,-4.63 5.48,-10.41 5.48,-17.3 a 44.61,44.61 0 0 0 -2.69,-15.38 z m -8.08,28.47 c -1.47,1.86 -4.18,4.35 -10.71,4.35 a 49.45,49.45 0 0 1 -6.31,-0.43 v -34.09 l 15.42,-1.87 a 17.53,17.53 0 0 1 3.29,5.89 38,38 0 0 1 2.33,13.05 c 0,5.38 -1.31,9.66 -4.02,13.1 z M 141.5,98.92 a 43.56,43.56 0 0 0 -4.19,-5.59 50.78,50.78 0 0 0 -5.92,-5.79 C 120.55,78.49 106.57,73.93 89.71,73.93 H 89 L 21.46,75.5 a 6.76,6.76 0 0 0 -6.61,6.65 l -0.21,10.38 a 6.8,6.8 0 0 0 5.79,6.84 l 8.67,1.29 v 91.94 a 116.91,116.91 0 0 0 -12.4,7.26 6.75,6.75 0 0 0 -2.92,6.89 L 15,213 a 6.77,6.77 0 0 0 6.67,5.53 H 95 a 6.8,6.8 0 0 0 6.81,-6.65 l 0.18,-10.37 a 6.77,6.77 0 0 0 -5.73,-6.84 l -18.13,-2.82 v -19 l 14.26,-0.13 c 15.88,-0.28 29.26,-4.94 39.77,-13.83 10.87,-9.2 16.39,-20.84 16.39,-34.62 A 46.65,46.65 0 0 0 141.5,98.92 Z m -13.77,54.85 q -14,11.83 -35.49,12.22 l -20.94,0.19 v 31.49 L 95.17,201.39 95,211.76 H 21.63 l -1.18,-6.26 a 109.6,109.6 0 0 1 15.46,-8.62 V 94.81 L 21.42,92.64 21.63,82.28 89.1,80.71 q 23.3,-0.19 38,12 14.7,12.19 14.67,31.58 -0.05,17.65 -14.04,29.48 z m -32.17,-56 -24.26,2.9 v 45.75 A 58.46,58.46 0 0 0 84.4,148 q 10.57,0 16,-6.93 c 3.66,-4.63 5.48,-10.41 5.48,-17.3 a 44.61,44.61 0 0 0 -2.73,-15.37 q -2.7,-7.54 -7.59,-10.66 z m -0.45,39.12 c -1.47,1.86 -4.18,4.35 -10.71,4.35 a 49.45,49.45 0 0 1 -6.31,-0.43 v -34.12 l 15.42,-1.87 a 17.53,17.53 0 0 1 3.29,5.89 38,38 0 0 1 2.33,13.05 c 0,5.38 -1.31,9.66 -4.02,13.1 z"
     id="path6"
     inkscape:connector-curvature="0"
     style="fill:#5e1515" />
  <path
     class="cls-2"
     d="M 127.05,92.75 Q 112.37,80.52 89.1,80.75 l -67.47,1.53 -0.21,10.36 14.49,2.17 v 102.07 a 109.6,109.6 0 0 0 -15.46,8.62 l 1.18,6.26 H 95 L 95.21,201.39 71.3,197.67 V 166.18 L 92.24,166 q 21.49,-0.39 35.49,-12.22 14,-11.83 14,-29.44 Q 141.72,105 127.05,92.75 Z m -23.86,15.64 a 44.61,44.61 0 0 1 2.73,15.37 c 0,6.89 -1.82,12.67 -5.48,17.3 -3.66,4.63 -9,6.93 -16,6.93 a 58.46,58.46 0 0 1 -13.1,-1.57 V 100.67 L 95.6,97.74 q 4.84,3.11 7.59,10.65 z"
     id="path8"
     inkscape:connector-curvature="0"
     style="fill:#ededed" />
  <path
     class="cls-1"
     d="m 257.93,78.3 a 6.87,6.87 0 0 0 -5.51,-2.82 H 144.27 a 6.82,6.82 0 0 0 -6.81,6.67 l -0.18,10.38 a 7,7 0 0 0 0,0.8 6.77,6.77 0 0 0 4.19,5.59 5.91,5.91 0 0 0 1.57,0.45 l 8.67,1.29 v 91.94 a 117.28,117.28 0 0 0 -12.43,7.26 6.74,6.74 0 0 0 -2.89,6.89 l 1.15,6.26 a 6.81,6.81 0 0 0 6.7,5.53 h 73.36 a 6.76,6.76 0 0 0 6.78,-6.65 l 0.21,-10.37 a 6.79,6.79 0 0 0 -5.76,-6.84 l -18.11,-2.82 v -24.63 l 36.33,1.64 a 6.82,6.82 0 0 0 7.09,-6.78 v -22.3 a 6.78,6.78 0 0 0 -7.31,-6.78 l -36.11,2.76 v -29 l 18.94,1.29 2.8,16.07 a 6.78,6.78 0 0 0 6.69,5.62 h 19.55 a 6.81,6.81 0 0 0 6.63,-5.28 169.18,169.18 0 0 0 3.87,-36.92 v -0.28 l -0.15,-3.55 a 6.84,6.84 0 0 0 -1.12,-5.42 z m -5.51,9.25 A 161.4,161.4 0 0 1 248.7,123 h -19.55 l -3.72,-21.32 -31.49,-2.18 v 43.62 l 43.41,-3.33 v 22.3 l -43.41,-2 v 37.55 l 23.87,3.72 -0.21,10.37 h -73.33 l -1.18,-6.26 a 108.41,108.41 0 0 1 15.45,-8.62 V 94.81 l -14.48,-2.17 0.21,-10.36 h 108.15 l -0.21,0.58 z"
     id="path10"
     inkscape:connector-curvature="0"
     style="fill:#5e1515" />
  <path
     class="cls-2"
     d="m 252.21,82.86 0.21,4.69 A 161.4,161.4 0 0 1 248.7,123 h -19.55 l -3.72,-21.32 -31.49,-2.18 v 43.62 l 43.41,-3.33 v 22.3 l -43.41,-2 v 37.55 l 23.87,3.72 -0.21,10.37 h -73.33 l -1.18,-6.26 a 108.41,108.41 0 0 1 15.45,-8.62 V 94.81 l -14.48,-2.17 0.21,-10.36 h 108.15 z"
     id="path12"
     inkscape:connector-curvature="0"
     style="fill:#ededed" />
  <path
     class="cls-1"
     d="m 282.79,220.54 a 7.12,7.12 0 0 0 -1.27,-1.92 l 2.82,-2.82 a 6.83,6.83 0 0 0 2,-4.73 c 0.05,-7.07 -2.26,-12.9 -6.92,-17.36 -4.66,-4.46 -10.39,-6.58 -17.36,-6.58 a 26,26 0 0 0 -19.38,8.3 c -0.47,0.48 -0.93,1 -1.35,1.51 0,-0.22 0,-0.47 0,-0.69 a 21.18,21.18 0 0 0 -7.73,-16.6 c -4.81,-4.09 -10.9,-6.15 -18.15,-6.15 a 42.89,42.89 0 0 0 -22.24,6.34 6.8,6.8 0 0 0 -3.31,5.61 l -0.07,2.48 v 0.23 a 59.32,59.32 0 0 0 1.66,15.12 6.79,6.79 0 0 0 6.56,5 h 5.4 l -12.86,13.85 a 6.83,6.83 0 0 0 -1.64,6.17 l 1.68,7.21 a 6.79,6.79 0 0 0 6.62,5.25 h 36 0.67 c 0.23,0 0.45,0 0.69,0 a 6.82,6.82 0 0 0 6.51,-4.84 c 0.24,-0.8 0.46,-1.6 0.67,-2.43 0.32,0.34 0.65,0.68 1,1 A 27.29,27.29 0 0 0 262.3,242 h 0.43 l 3.7,-0.24 a 7,7 0 0 0 2.9,-0.88 l 12.6,-7.14 a 6.8,6.8 0 0 0 2.86,-8.64 z M 234.63,234 233.28,233.83 V 234 h -36 l -1.69,-7.23 17.72,-19.08 c 4.71,-5.39 7.07,-9.76 7.07,-13.07 a 7,7 0 0 0 -2.13,-5.21 c -1.43,-1.39 -3.48,-2.08 -6.21,-2.08 l -1.12,0.08 -4,14.11 h -8.82 a 53.61,53.61 0 0 1 -1.44,-13.38 l 0.08,-2.49 a 36,36 0 0 1 18.76,-5.38 q 8.42,0 13.75,4.52 a 14.38,14.38 0 0 1 5.33,11.44 16.8,16.8 0 0 1 -2.63,8.69 66.16,66.16 0 0 1 -9.14,10.95 l -11.27,11.33 0.32,0.56 13.14,-2.17 6.24,-9.7 3.59,0.9 2.6,0.63 a 69.16,69.16 0 0 1 -0.84,7.93 65.94,65.94 0 0 1 -1.96,8.65 z m 23.79,-10.5 a 11.61,11.61 0 0 0 8,2.8 c 2.82,0 6.22,-1 10.16,-3 l 2,4.56 -12.58,7.14 -3.69,0.25 a 20.61,20.61 0 0 1 -14.8,-5.61 18.7,18.7 0 0 1 -3.89,-5.25 v 0 a 20,20 0 0 1 -2,-9.08 23.34,23.34 0 0 1 0.19,-3 20.53,20.53 0 0 1 5.78,-12.07 19.34,19.34 0 0 1 14.48,-6.23 q 7.77,0 12.67,4.69 c 3.25,3.14 4.86,7.27 4.8,12.39 l -4.65,4.66 -20.2,-0.17 a 11.93,11.93 0 0 0 3.73,7.94 z"
     id="path14"
     inkscape:connector-curvature="0"
     style="fill:#5e1515" />
  <path
     class="cls-1"
     d="m 264.58,203 a 6.11,6.11 0 0 0 -4.69,-2.43 c -2.56,1.59 -4.2,4.55 -4.89,8.83 l 12,-0.73 A 11.3,11.3 0 0 0 264.58,203 Z m 0,0 a 6.11,6.11 0 0 0 -4.69,-2.43 c -2.56,1.59 -4.2,4.55 -4.89,8.83 l 12,-0.73 A 11.3,11.3 0 0 0 264.58,203 Z m 0,0 a 6.11,6.11 0 0 0 -4.69,-2.43 c -2.56,1.59 -4.2,4.55 -4.89,8.83 l 12,-0.73 A 11.3,11.3 0 0 0 264.58,203 Z m 0,0 a 6.11,6.11 0 0 0 -4.69,-2.43 c -2.56,1.59 -4.2,4.55 -4.89,8.83 l 12,-0.73 A 11.3,11.3 0 0 0 264.58,203 Z m 0,0 a 6.11,6.11 0 0 0 -4.69,-2.43 c -2.56,1.59 -4.2,4.55 -4.89,8.83 l 12,-0.73 A 11.3,11.3 0 0 0 264.58,203 Z"
     id="path16"
     inkscape:connector-curvature="0"
     style="fill:#5e1515" />
  <path
     class="cls-3"
     d="m 237.45,217.42 a 69.16,69.16 0 0 1 -0.84,7.93 65.94,65.94 0 0 1 -2,8.67 l -1.35,-0.17 V 234 h -36 l -1.69,-7.23 17.72,-19.08 c 4.71,-5.39 7.07,-9.76 7.07,-13.07 a 7,7 0 0 0 -2.13,-5.21 c -1.43,-1.39 -3.48,-2.08 -6.21,-2.08 l -1.12,0.08 -4,14.11 h -8.82 a 53.61,53.61 0 0 1 -1.44,-13.38 l 0.08,-2.49 a 36,36 0 0 1 18.76,-5.38 q 8.42,0 13.75,4.52 a 14.38,14.38 0 0 1 5.33,11.44 16.8,16.8 0 0 1 -2.63,8.69 66.16,66.16 0 0 1 -9.14,10.95 l -11.25,11.33 0.32,0.56 13.14,-2.17 6.24,-9.7 3.59,0.9 z"
     id="path18"
     inkscape:connector-curvature="0"
     style="fill:#dac484" />
  <path
     class="cls-3"
     d="m 266.4,226.32 a 11.61,11.61 0 0 1 -8,-2.8 11.93,11.93 0 0 1 -3.74,-8 l 20.2,0.17 4.65,-4.66 c 0.06,-5.12 -1.55,-9.25 -4.8,-12.39 -3.25,-3.14 -7.49,-4.69 -12.67,-4.69 a 19.34,19.34 0 0 0 -14.48,6.23 20.53,20.53 0 0 0 -5.78,12.07 23.34,23.34 0 0 0 -0.19,3 20,20 0 0 0 2,9.08 v 0 a 18.7,18.7 0 0 0 3.89,5.25 20.61,20.61 0 0 0 14.8,5.61 L 266,235 l 12.59,-7.14 -2,-4.56 c -3.97,1.99 -7.37,3.02 -10.19,3.02 z m -6.51,-25.74 a 6.11,6.11 0 0 1 4.69,2.43 11.3,11.3 0 0 1 2.45,5.67 l -12,0.73 c 0.66,-4.28 2.3,-7.24 4.86,-8.83 z"
     id="path20"
     inkscape:connector-curvature="0"
     style="fill:#dac484" />
</svg>
