<?xml version="1.0" standalone="no"?>
<!DOCTYPE svg PUBLIC "-//W3C//DTD SVG 20010904//EN"
 "http://www.w3.org/TR/2001/REC-SVG-20010904/DTD/svg10.dtd">
<svg version="1.0" xmlns="http://www.w3.org/2000/svg"
 width="700.000000pt" height="700.000000pt" viewBox="0 0 700.000000 700.000000"
 preserveAspectRatio="xMidYMid meet">
<metadata>
Created by potrace 1.14, written by Peter Selinger 2001-2017
</metadata>
<g transform="translate(0.000000,700.000000) scale(0.100000,-0.100000)"
fill="#000000" stroke="none">
<path d="M0 3500 l0 -3500 3500 0 3500 0 0 3500 0 3500 -3500 0 -3500 0 0
-3500z m2232 1610 c205 -17 362 -58 513 -133 424 -210 632 -627 539 -1079 -65
-319 -358 -605 -730 -713 -139 -40 -268 -53 -591 -60 l-303 -7 0 -364 0 -364
23 -4 c12 -3 128 -21 257 -41 129 -19 245 -38 258 -40 21 -5 22 -9 22 -125 l0
-120 -858 0 -859 0 -11 64 c-7 35 -12 68 -12 74 0 12 108 79 255 158 l105 56
0 1189 c0 812 -3 1189 -10 1189 -14 0 -278 39 -308 46 -21 4 -22 8 -22 124 l0
120 68 1 c64 1 1439 35 1512 37 19 1 88 -3 152 -8z m3655 -252 c-6 -233 -23
-402 -60 -603 l-22 -120 -230 0 -229 0 -43 244 c-23 134 -44 245 -45 246 -2 2
-145 12 -318 24 -173 11 -336 23 -362 26 l-48 6 0 -511 0 -511 53 5 c28 4 234
20 457 36 223 16 426 33 453 36 l47 6 0 -261 0 -261 -32 0 c-18 0 -217 9 -443
20 -225 11 -438 20 -472 20 l-63 0 0 -219 0 -220 -34 -26 c-19 -14 -41 -44
-50 -66 -21 -52 -21 -207 0 -348 28 -194 63 -234 207 -239 l87 -4 -31 -39 -31
-39 -656 2 -656 3 -13 60 c-7 33 -12 65 -13 72 0 13 103 78 255 159 l105 56 0
1189 c0 654 -3 1189 -7 1189 -12 0 -285 40 -310 46 -21 4 -23 10 -23 78 0 40
3 94 6 120 l7 46 1260 0 1260 0 -6 -222z m-706 -2086 c85 -24 144 -59 198
-117 111 -121 121 -297 24 -445 -59 -90 -108 -146 -292 -332 -96 -98 -172
-181 -168 -185 4 -3 75 4 157 17 l150 24 68 105 c37 57 70 108 73 113 3 5 38
1 78 -9 l72 -17 -6 -61 c-9 -89 -33 -224 -48 -275 l-13 -45 -435 -3 -435 -2
-17 72 c-10 40 -17 80 -17 88 0 8 46 65 103 125 415 443 477 530 465 655 -9
87 -64 137 -163 147 -46 5 -54 3 -58 -13 -17 -59 -67 -235 -77 -271 l-11 -43
-104 0 -103 0 -6 28 c-15 71 -26 175 -26 254 l0 88 58 28 c175 88 380 116 533
74z m1081 -323 c122 -41 201 -120 238 -238 33 -103 29 -127 -32 -188 l-52 -53
-238 0 c-131 0 -238 -4 -238 -8 0 -34 36 -115 66 -150 78 -91 199 -116 334
-68 121 44 114 44 137 -10 25 -57 40 -41 -137 -141 -142 -79 -190 -91 -306
-73 -229 35 -393 223 -394 452 0 228 134 417 345 484 65 21 206 17 277 -7z"/>
<path d="M1935 4684 c-143 -18 -263 -33 -268 -33 -4 -1 -6 -241 -5 -533 l3
-533 55 -12 c83 -20 304 -28 372 -14 184 39 318 187 364 401 35 165 -1 422
-82 586 -40 80 -126 175 -158 173 -12 -1 -138 -16 -281 -35z"/>
<path d="M6038 2301 c-29 -23 -72 -106 -83 -158 l-6 -32 68 5 c37 2 101 7 141
10 l74 6 -7 26 c-19 76 -78 147 -130 158 -22 4 -38 0 -57 -15z"/>
</g>
</svg>
